<svg xmlns="http://www.w3.org/2000/svg" width="600" height="600" viewBox="0 0 200 200" style="overflow:hidden!important">
  <defs>
    <radialGradient id="o" cx="100" cy="114" r="41" gradientUnits="userSpaceOnUse" class="svga-on-canvas-facehighlight-gradient-single-0">
      <stop stop-opacity=".5" stop-color="#e9bfa9" offset="0"/>
      <stop stop-opacity="0" stop-color="#daa488" offset=".9"/>
    </radialGradient>
    <radialGradient id="p" cx="100" cy="54" r="37" gradientUnits="userSpaceOnUse" class="svga-on-canvas-facehighlight-gradient-single-1">
      <stop stop-opacity=".5" stop-color="#e9bfa9" offset="0"/>
      <stop stop-opacity="0" stop-color="#daa488" offset=".9"/>
    </radialGradient>
    <radialGradient id="c" cx="125.379" cy="82.93" r="12.84" gradientTransform="matrix(-1.0592 .0004 -.0004 .9318 206.511 5.177)" gradientUnits="userSpaceOnUse" class="svga-on-canvas-eyesback-gradient-left-0">
      <stop stop-color="#fff" offset="0"/>
      <stop stop-color="#fdfefe" offset=".544"/>
      <stop stop-color="#f6f8f9" offset=".74"/>
      <stop stop-color="#eaeff2" offset=".879"/>
      <stop stop-color="#d9e3e8" offset=".992"/>
      <stop stop-color="#d8e2e7" offset="1"/>
    </radialGradient>
    <radialGradient id="i" cx="125.001" cy="82.93" r="12.841" gradientTransform="matrix(1.0592 .0004 .0004 .9318 -6.511 5.177)" gradientUnits="userSpaceOnUse" class="svga-on-canvas-eyesback-gradient-right-0">
      <stop stop-color="#fff" offset="0"/>
      <stop stop-color="#fdfefe" offset=".544"/>
      <stop stop-color="#f6f8f9" offset=".74"/>
      <stop stop-color="#eaeff2" offset=".879"/>
      <stop stop-color="#d9e3e8" offset=".992"/>
      <stop stop-color="#d8e2e7" offset="1"/>
    </radialGradient>
    <radialGradient id="g" cx="123.218" cy="81.096" fx="133.802" fy="77.197" r="17.898" gradientTransform="matrix(.9998 .0183 .0166 -.7038 -47.759 136.625)" gradientUnits="userSpaceOnUse" class="svga-on-canvas-eyesfront-gradient-left-3">
      <stop stop-color="#cb8b6a" offset="0"/>
      <stop stop-opacity=".3" stop-color="#cb8b6a" offset=".7"/>
      <stop stop-opacity="0" stop-color="#daa488" offset="1"/>
    </radialGradient>
    <radialGradient id="h" cx="79.496" cy="81.496" r="23.208" gradientTransform="matrix(1.0971 -.0499 .0576 .9543 -20.163 27.912)" gradientUnits="userSpaceOnUse" class="svga-on-canvas-eyesfront-gradient-left-4">
      <stop stop-opacity="0" offset=".9"/>
      <stop stop-opacity=".2" offset="1"/>
    </radialGradient>
    <radialGradient id="m" cx="122.818" cy="81.096" fx="133.402" fy="77.197" r="17.898" gradientTransform="matrix(-.9998 .0183 -.0166 -.7038 246.96 136.633)" gradientUnits="userSpaceOnUse" class="svga-on-canvas-eyesfront-gradient-right-3">
      <stop stop-color="#cb8b6a" offset="0"/>
      <stop stop-opacity=".3" stop-color="#cb8b6a" offset=".7"/>
      <stop stop-opacity="0" stop-color="#daa488" offset="1"/>
    </radialGradient>
    <radialGradient id="n" cx="79.859" cy="81.511" r="23.208" gradientTransform="matrix(-1.0971 -.0499 -.0576 .9543 220.163 27.916)" gradientUnits="userSpaceOnUse" class="svga-on-canvas-eyesfront-gradient-right-4">
      <stop stop-opacity="0" offset=".9"/>
      <stop stop-opacity=".2" offset="1"/>
    </radialGradient>
    <linearGradient id="a" x1="100" y1="172" x2="100" y2="122" gradientUnits="userSpaceOnUse" class="svga-on-canvas-chinshadow-gradient-single-0">
      <stop stop-opacity=".8" stop-color="#cb8b6a" offset="0"/>
      <stop stop-color="#ac5f38" offset=".7"/>
    </linearGradient>
    <linearGradient id="b" x1="100" y1="142" x2="100" y2="139" gradientUnits="userSpaceOnUse" class="svga-on-canvas-mouth-gradient-single-0">
      <stop stop-color="#d29779" offset=".1"/>
      <stop stop-color="#cb8b6a" offset="1"/>
    </linearGradient>
    <linearGradient id="d" x1="122.67" y1="88.268" x2="123.606" y2="87.152" gradientTransform="translate(-52)" gradientUnits="userSpaceOnUse" class="svga-on-canvas-eyesiris-gradient-left-5">
      <stop stop-color="#fff" offset="0"/>
      <stop stop-opacity="0" stop-color="#fff" offset="1"/>
    </linearGradient>
    <linearGradient id="e" x1="127.212" y1="82.296" x2="126.463" y2="83.189" gradientTransform="translate(-52)" gradientUnits="userSpaceOnUse" class="svga-on-canvas-eyesiris-gradient-left-6">
      <stop stop-color="#fff" offset="0"/>
      <stop stop-opacity="0" stop-color="#fff" offset="1"/>
    </linearGradient>
    <linearGradient id="f" x1="129.636" y1="79.822" x2="127.91" y2="81.879" gradientTransform="translate(-52)" gradientUnits="userSpaceOnUse" class="svga-on-canvas-eyesiris-gradient-left-7">
      <stop stop-color="#fff" offset="0"/>
      <stop stop-opacity="0" stop-color="#fff" offset="1"/>
    </linearGradient>
    <linearGradient id="j" x1="122.67" y1="88.268" x2="123.606" y2="87.152" gradientUnits="userSpaceOnUse" class="svga-on-canvas-eyesiris-gradient-right-5">
      <stop stop-color="#fff" offset="0"/>
      <stop stop-opacity="0" stop-color="#fff" offset="1"/>
    </linearGradient>
    <linearGradient id="k" x1="127.212" y1="82.296" x2="126.463" y2="83.189" gradientUnits="userSpaceOnUse" class="svga-on-canvas-eyesiris-gradient-right-6">
      <stop stop-color="#fff" offset="0"/>
      <stop stop-opacity="0" stop-color="#fff" offset="1"/>
    </linearGradient>
    <linearGradient id="l" x1="129.636" y1="79.822" x2="127.91" y2="81.879" gradientUnits="userSpaceOnUse" class="svga-on-canvas-eyesiris-gradient-right-7">
      <stop stop-color="#fff" offset="0"/>
      <stop stop-opacity="0" stop-color="#fff" offset="1"/>
    </linearGradient>
  </defs>
  <g/>
  <path d="M225 225H-25V-25h250z" fill="#fff"/>
  <path d="M195.417 199.778c-2.196-4.746-8.195-11.779-14.86-13.722-8.239-2.403-26.837-5.308-33.733-6.923-5.528-1.296-16.662-11.294-20.564-14.65-.7-.6-1.273-1.839-1.287-2.76-.139-10.864 4.195-39.724 4.195-39.724H70.833s4.334 28.859 4.193 39.724c-.011.921-.587 2.16-1.285 2.76-3.902 3.356-15.036 13.354-20.564 14.65-6.897 1.615-25.495 4.619-33.733 7.022-6.667 1.942-12.664 8.876-14.86 13.622-3.708 8.008-4.584 22.5-4.584 35h200c0-12.499-.877-26.991-4.583-34.999" fill="#daa488"/>
  <path d="M159.156 184.058c24.342 3.542 34.586 8.708 37.794 50.721H200c0-12.5-.877-26.992-4.583-35-2.196-4.746-8.195-11.779-14.86-13.722-8.239-2.403-26.837-5.308-33.733-6.923-5.528-1.296-18.242-12.069-21.643-16.35 3.36 4.704 12.791 15.605 21.054 18.46 3.953 1.366 7.245 1.988 12.921 2.814m-105.39-2.814c8.263-2.854 17.693-13.756 21.054-18.46-3.4 4.28-16.114 15.054-21.643 16.35-6.896 1.615-25.494 4.619-33.733 7.022-6.665 1.942-12.664 8.876-14.86 13.622-3.706 8.008-4.583 22.5-4.583 35h3.05c3.188-41.744 13.475-47.183 37.794-50.721 5.675-.825 8.968-1.447 12.921-2.813" fill="#e9bfa9"/>
  <path d="M95.646 197.62s-5.074-1.609-7.083-2.379c-10.449-4.009-44.395-6.607-44.395-6.607s35.754 1.419 43.644 2.779c-.458-4.767-3.017-20.004-3.017-20.004s5.149 16.815 6.409 21.057c.674 2.268 4.442 5.154 4.442 5.154m10.799-1.342c-.089.073-.191.168-.302.268q.17-.127.302-.268m-10.799 1.342s2.893 2.992 4.347 3.03c1.91.051 4.828-2.899 6.151-4.104-1.265.957-4.159 1.391-5.31 1.436-1.33.051-5.188-.362-5.188-.362m21.018-7.519c-1.545.248-4.386.789-4.386.789l2.287-14.89c-.646 3.071-4.474 16.211-8.12 20.278 1.91-1.616 6.158-2.391 8.324-2.704 10.236-1.484 10.232-1.483 41.062-4.94 0 0-29.071-.155-39.167 1.467" fill="#cb8b6a"/>
  <path d="M195.417 199.778c-2.196-4.746-8.195-11.779-14.86-13.722-8.239-2.403-26.837-5.308-33.733-6.923-5.528-1.296-16.662-11.294-20.564-14.65-.7-.6-1.273-1.839-1.287-2.76-.139-10.864 4.195-39.724 4.195-39.724H70.833s4.334 28.859 4.193 39.724c-.011.921-.587 2.16-1.285 2.76-3.902 3.356-15.036 13.354-20.564 14.65-6.897 1.615-25.495 4.619-33.733 7.022-6.667 1.942-12.664 8.876-14.86 13.622-3.708 8.008-4.584 22.5-4.584 35h200c0-12.499-.877-26.991-4.583-34.999z" fill="none" stroke="#ac5f38" stroke-width="1.5"/>
  <path d="M75.517 163.052c6.979 4.54 16.307 8.814 24.485 8.814 7.828 0 17.345-4.309 24.458-8.869a4.2 4.2 0 0 1-.239-1.264c-.126-9.877 3.345-34.021 4.076-38.983H71.703c.73 4.963 4.202 29.106 4.074 38.982a4.2 4.2 0 0 1-.26 1.32" fill="url(#a)"/>
  <g stroke-width="none">
    <path d="M128.857 237.978H70.72v-56.183c22.25 4.699 36.88 4.337 58.138 0v56.183z" fill="#f3f1f3"/>
    <path d="M107.44 237.709c-2.775 0-10.727.208-16.512-.23l-.01-.171c-.818-18.658 1.129-30.719 4.537-39.288l.048-.123-.093-.093c-.905-.904-2.425-1.935-4.034-3.025-1.611-1.093-3.275-2.221-4.336-3.246.625-.732 1.395-1.454 2.348-2.201.245-.125 1.162-.843 5.974-4.971l.362-.31c.818-.178 2.138-.293 3.738-.293 2.183 0 4.731.221 6.512.563 1.561 1.458 3.451 5.329 4.158 7.17-.976 2.291-2.128 3.129-3.717 4.284-.774.563-1.652 1.201-2.652 2.112l-.083.075.021.111c4.026 20.31 4.027 25.054 4.027 29.642.001 2.021.001 6.609.339 9.985-.15.007-.363.009-.627.009" fill="#131111"/>
    <path d="M110.35 191.495c-.754-1.995-2.71-5.93-4.28-7.359-2.876-.563-7.983-.843-10.47-.24-.108.088-6.248 5.383-6.31 5.26-.906.708-1.788 1.504-2.52 2.39 2.061 2.076 6.655 4.556 8.5 6.4-3.65 9.18-5.33 21.59-4.55 39.38.01.11.01.23.02.34 6.756.52 16.55.331 17.55.223-1.16-11.307 1.438-10.455-4.39-39.853 3.068-2.795 4.965-2.996 6.45-6.541m-5.25 19.04c-.021-.05-.04-.1-.051-.13 2 10.55 1.38 18.632 2.891 26.972-4.736-.318-12.014-.052-16.771-.052.369-7.198 1.188-31.684 4.74-39.74.17-.046.339-.084.509-.125l-1.032 34.736 2.747-35.066.06-.008 1.801 32.605.417-32.734h.077l4.199 36.355-2.3-36.137q.472.095.942.233c.03 0 .07.01.1.03.104 1.002.936 8.402 1.671 13.061m-.881-13.809c-2.774-1.251-6.363-1.026-9.129.24-1.681-1.813-4.08-3.077-7.53-5.391a52 52 0 0 1 2.21-1.81c.08 0 3.48-2.771 3.54-2.83.92-.84 1.74-1.79 2.52-2.62 2.93-.12 7.23.02 9.82.14 1.5 1.876 2.931 4.696 4.01 6.94-1.961 2.871-3.901 4.15-5.441 5.331"/>
    <path d="M78.196 213.077c-11.534-40.071-6.325-29.581-9.399-45.32 2.028-4.813 3.958-10.44 5.042-11.598l.08-.086c2.292 24.007 8.958 13.636 23.784 27.722-8.475 5.654-16.331 20.332-19.507 29.282m52.997-45.319c-1.448-3.702-4.077-9.127-5.215-10.331 1.424 20.678-15.146 16.551-24.35 26.2 8.812 5.713 17.173 20.66 20.172 29.455 13.12-43.514 6.05-24.409 9.393-45.324" fill="#f3f1f4"/>
    <path d="M125.801 156.967c0 5.137-.42 9.162-1.262 10.339-2.443 5.809-13.103 9.853-16.39 11.51-2.495 1.227-4.942 2.809-6.83 4.85 3.813 2.476 5.705 3.383 12.93 14.44 4.246 7.109 6.539 12.448 7.561 15.64 13.378-44.331 6.222-24.978 9.59-46.01-1.586-4.086-4.599-9.851-5.599-10.769m3.648 19.528c-1.957 18.078-3.491 14.485-7.74 34.181-2.716-8.644-11.075-22.913-19.43-27.091 3.937-2.957 5.031-3.131 9.729-5.279 14.396-6.42 14.985-12.385 14.138-20.271 1.207 1.423 3.125 6.161 4.692 9.521-.859 3.146-1.249 7.638-1.389 8.939m-50.25-4.599c-4.408-3.649-3.16-8.162-5.189-16.215-.902 1-3.146 6.632-5.42 12.055.557 2.796.681 7.389.76 8.84.559 12.202 1.75 12.765 8.83 37.16 3.031-8.905 11.558-24.37 20.24-30.009-6.931-6.326-15.655-8.728-19.221-11.831m5.46 25.509c-2.221 3.666-4.517 7.48-6.37 13.28-4.442-20.269-5.999-16.964-7.73-34.16-.32-2.971-.617-6.027-1.4-8.96 1.638-3.588 3.981-10.281 4.731-10.995 1.366 7.078.066 13.462 5.669 16.995 2.621 1.996 11.104 5.32 17.52 10.36-3.891 2.31-5.985 3.671-12.42 13.48" fill="#cfc8d7"/>
    <path d="m120.319 209.824-1.209-2.654s9.148-28.175 10.743-36.225c.912 8.354-9.534 38.879-9.534 38.879m-41.44-1.103 1.436-3.259s-8.573-26.467-10.168-34.517c-.912 8.354 8.732 37.776 8.732 37.776" fill="#e1e0e1"/>
    <path d="M124.787 195.605c7.065-20.834 2.756-22.551 6.305-29.469.134-.261 1.396 1.046 1.533 1.64 1.306 5.658 53.349 17.338 54.994 18.598 1.456 1.058 5.65 3.137 5.65 3.137 4.937 9.07 7.762 10.698 9.15 34.984.13 3.083-.061 11.801-.061 14.141l-85.559-.676c.205-7.791 1.2-21.81 7.988-42.355m-49.574 0c-7.065-20.834-2.756-22.551-6.305-29.469-.134-.261-1.396 1.046-1.533 1.64-1.306 5.658-53.349 17.338-54.994 18.598-1.456 1.058-5.65 3.137-5.65 3.137-4.937 9.07-7.762 10.698-9.15 34.984-.13 3.083.061 11.801.061 14.141l85.559-.676c-.205-7.791-1.2-21.81-7.988-42.355" fill="#1d282e"/>
    <path d="M130.307 190c-4.552 16.387-10.771 31.116-13.506 47.96-.89-.007 1.491-22.695 7.986-42.354 7.065-20.834 2.756-22.551 6.305-29.469.077-.15-.619 1.976-.223 2.432-.146 7.727 1.756 13.703-.562 21.431m-60.614 0c4.552 16.387 10.771 31.116 13.506 47.96.89-.007-1.491-22.695-7.986-42.354-7.065-20.834-2.756-22.551-6.305-29.469-.077-.15.619 1.976.223 2.432.146 7.727-1.756 13.703.562 21.431" fill="#101a1f"/>
    <path d="M152.436 186.031s-2.284 2.561-8.636 6.923c5.313-5.885 7.761-8.249 7.761-8.249zm2.175 11.875-1.528-1.367c-4.538 13.781-7.571 20.587-12.828 36.618 7.544-14.326 9.344-19.412 14.356-35.251M48.439 184.705s2.447 2.364 7.761 8.249c-6.352-4.362-8.636-6.923-8.636-6.923zm11.306 48.452c-5.257-16.031-8.29-22.837-12.828-36.618l-1.528 1.367c5.012 15.839 6.812 20.925 14.356 35.251" fill="#070c0f"/>
    <path d="M179.409 219.335c0-11.596 3.11-18.351 9.615-28.142.608.372.931.543 1.345.875-6.917 8.583-8.291 16.591-10.96 27.267m-38.097 11.368c6.113-16.703 8.06-23.228 12.107-34.388-1.15-.351-8.671-2.985-9.819-3.346.41 1 3.113 1.822 7.822 4.709 0 .001-5.089 15.404-10.11 33.025m8.221-46.126s-3.352 4.14-6.664 8.328c3.388-2.67 5.748-5.644 8.691-8.2-3.994-3.368-10.511-8.524-14.721-12.089 3.324 3.572 12.694 11.961 12.694 11.961m52.54 54.057.286.002c0-2.34.19-11.058.061-14.141-1.389-24.286-4.214-25.914-9.15-34.984 0 0-4.194-2.079-5.65-3.137-1.334-1.021-38.794-9.922-52.49-15.88 16.011 10.971 46.282 15.027 55.24 21.574 4.332 3.167 10.165 30.269 11.703 46.566M9.613 192.037c.542-.383.619-.366 1.168-.729 6.505 9.791 9.809 16.431 9.809 28.026-2.668-10.675-4.51-19.016-10.977-27.297m38.965 5.642c4.709-2.887 7.412-3.709 7.822-4.709-1.148.36-8.669 2.995-9.819 3.346 4.048 11.16 5.994 17.685 12.107 34.388a937 937 0 0 0-10.11-33.025m14.582-25.063c-4.21 3.564-10.727 8.721-14.721 12.089 2.943 2.557 5.304 5.53 8.691 8.2-3.313-4.188-6.664-8.328-6.664-8.328s9.371-8.389 12.694-11.961M9.631 192.068c8.958-6.547 39.229-10.604 55.24-21.574-13.696 5.958-51.156 14.858-52.49 15.88-1.456 1.058-5.65 3.137-5.65 3.137-4.937 9.07-7.762 10.698-9.15 34.984-.13 3.083.061 11.801.061 14.141l.286-.002c1.537-16.297 7.37-43.399 11.703-46.566" fill="#2d373d"/>
    <path d="M132.246 166.374c-.049-.293-.443-.634-.738-.657-.296-.023-.432.458-.567.722-3.549 6.918.414 8.333-6.651 29.167-6.788 20.545-7.584 34.862-7.787 42.653l85.857.377c0-2.34.489-11.058.359-14.141-1.389-24.286-4.313-26.113-9.25-35.184 0 0-4.394-2.179-5.85-3.236-4.889-3.742-.59.023-22.03-6-17.576-5.135-18.525-6.577-24.899-8.35-1.288-.369-4.057-.822-6.95-2.851-.265-.185-1.399-1.93-1.494-2.5m-15.272 70.936c3.729-23.564 6.085-29.73 11.296-47.274 3.522-11.104 1.576-17.408 3.254-22.54.088-.268.467-.282.571-.017 2.434 6.214 9.238 7.656 18.834 17.047-5.813 5.813-7.309 7.38-8.06 8.38.864.438 5.582 2.229 9.9 3.9-.245.767-13.415 38.02-13.57 38.52 10-21.578 11.292-28.211 14.22-39.01-.812-.612-7.892-3.212-9.09-3.64 4.274-4.424 5.51-5.396 7.53-7.971 1.622 0-15.874-13.318-16.73-14.211.462.364 2.752 1.391 3.01 1.491 14.682 5.166 3.065 2.829 35.2 12.001 3.072.781 7.355 1.567 10.53 1.879.218.02 5.395 2.727 8.35 3.97-7.189 7.475-11.797 17.133-12.81 29.5 3.219-12.666 4.951-19.29 13.14-28.819 7.62 15.422 6.755 13.195 9.23 47.71-20.612-.813-52.22-.999-84.805-.916m-50.713-68.435c-2.894 2.028-5.662 2.481-6.95 2.851-6.374 1.772-7.323 3.215-24.899 8.35-21.44 6.023-17.142 2.258-22.03 6-1.456 1.058-5.85 3.236-5.85 3.236-4.937 9.07-7.861 10.897-9.25 35.184-.13 3.083.359 11.801.359 14.141l85.857-.377c-.203-7.791-.999-22.108-7.787-42.653-7.065-20.834-3.103-22.249-6.651-29.167-.136-.264-.271-.745-.567-.722s-.689.364-.738.657c-.096.569-1.23 2.314-1.494 2.5m-68.04 69.351c2.476-34.515 1.61-32.288 9.23-47.71 8.188 9.529 9.921 16.153 13.14 28.819-1.013-12.367-5.62-22.025-12.81-29.5 2.955-1.243 8.132-3.95 8.35-3.97 3.175-.312 7.458-1.098 10.53-1.879 32.135-9.172 20.519-6.835 35.2-12.001.258-.101 2.548-1.127 3.01-1.491-.856.893-18.353 14.211-16.73 14.211 2.021 2.575 3.256 3.547 7.53 7.971-1.198.428-8.278 3.027-9.09 3.64 2.928 10.799 4.22 17.432 14.22 39.01-.155-.5-13.325-37.753-13.57-38.52 4.318-1.672 9.036-3.463 9.9-3.9-.751-1-2.247-2.567-8.06-8.38 9.596-9.391 16.4-10.833 18.834-17.047.104-.266.483-.251.571.017 1.678 5.132-.269 11.436 3.254 22.54 5.211 17.544 7.567 23.71 11.296 47.274-32.585-.083-64.193.103-84.805.916"/>
  </g>
  <path d="M46.632 84.282c-2.492-1.406-8.146-8.094-10.581-7.14-1.572.613-2.258 5.228-2.506 7.096-.316 2.398-.883 7.325-.312 9.675.69 2.836 3.45 8.082 5.102 10.476 1.394 2.016 4.95 5.507 6.086 7.684.722 1.381 1.419 5.104 3.88 4.864 1.59-.156 5.26-2.919 5.456-4.23 1.072-7.103-2.218-25.655-7.125-28.425z" fill="#daa488" stroke="#ac5f38" stroke-width="1.425"/>
  <path d="M43.34 99.622c-.118-.528.006-1.416.127-2.275.109-.783.213-1.521.15-2.044-.239-1.957-1.577-5.676-2.45-7.692-1.005-2.318-2.632-5.24-4.672-5.991-.844-.314-1.4.06-1.723.437-.235.278-.29.605-.212.643s.253-.232.509-.487c.208-.208.515-.386.934-.35-.17.975-1.037 6.254-.662 9.851.296 2.83 1.415 4.942 1.59 5.26q.039.501.132.976c.825 4.13 4.415 8.826 5.665 10.363.23.283.47.452.532.383.059-.07-.083-.35-.314-.634-1.233-1.529-4.79-6.207-5.585-10.192-.845-4.227 2.059-10.495 2.707-11.82.33.622.61 1.22.826 1.718.17.391.36.85.552 1.343-.382.693-3.05 5.74-2.078 9.78.361 1.49 1.984 3.41 3.062 3.936.593.291.816.723 1.074 1.224.298.582.64 1.242 1.622 1.72.2.095.382.136.543.136a.92.92 0 0 0 .645-.267c.016.255.015.58.007.882-.01.39.038.71.122.718s.173-.302.182-.69c.016-.477.013-1.068-.063-1.35-.22-.834-.895-1.774-1.61-2.77-.702-.98-1.43-1.993-1.612-2.808m-6.436-3.662c-1.933-6.484 0-12.439.435-13.328.755.746 2.003 2.103 2.545 3.077-.396.782-2.9 5.89-2.98 10.25m8.341 9.487c-.891-.433-1.19-1.013-1.479-1.574-.261-.508-.532-1.032-1.217-1.368a3 3 0 0 1-.48-.311c-2.208-5.689.242-8.176.854-8.685.19.694.329 1.333.39 1.844.059.47-.047 1.216-.147 1.939-.126.895-.255 1.82-.121 2.418.2.893.949 1.937 1.672 2.945.643.896 1.304 1.82 1.528 2.573-.095.15-.4.508-1 .22" fill="#ac5f38"/>
  <path d="M153.107 84.282c2.492-1.406 8.145-8.094 10.58-7.14 1.573.613 2.26 5.228 2.507 7.096.317 2.398.882 7.325.312 9.675-.689 2.836-3.45 8.082-5.103 10.476-1.393 2.016-4.95 5.507-6.085 7.684-.722 1.381-1.418 5.104-3.88 4.864-1.59-.156-5.258-2.919-5.457-4.23-1.072-7.103 2.218-25.655 7.126-28.425z" fill="#daa488" stroke="#ac5f38" stroke-width="1.425"/>
  <path d="M154.787 102.43c-.715.995-1.39 1.936-1.61 2.77-.075.282-.079.872-.063 1.35.011.387.1.697.183.69.084-.009.132-.328.122-.718a11 11 0 0 1 .006-.882.92.92 0 0 0 .646.267c.16 0 .341-.04.542-.137.983-.477 1.325-1.136 1.623-1.72.258-.5.48-.932 1.075-1.223 1.076-.526 2.7-2.446 3.062-3.936.971-4.04-1.696-9.087-2.08-9.78.194-.494.383-.952.554-1.343a24 24 0 0 1 .825-1.719c.648 1.326 3.551 7.594 2.706 11.821-.796 3.985-4.353 8.662-5.585 10.192-.23.285-.373.564-.314.634.061.068.303-.1.533-.383 1.249-1.538 4.84-6.233 5.665-10.363q.093-.475.132-.977c.175-.317 1.295-2.43 1.59-5.259.376-3.598-.492-8.876-.66-9.85.42-.037.726.141.933.35.255.254.43.524.508.486.076-.04.022-.365-.211-.643-.325-.377-.88-.751-1.723-.438-2.04.753-3.668 3.674-4.674 5.992-.874 2.017-2.21 5.735-2.449 7.692-.063.523.041 1.262.15 2.044.12.859.243 1.747.127 2.275-.184.815-.91 1.829-1.613 2.808m5.068-16.72c.541-.975 1.789-2.333 2.544-3.078.434.89 2.37 6.844.436 13.328-.082-4.36-2.585-9.469-2.98-10.25m-6.362 19.517c.224-.753.885-1.677 1.528-2.573.724-1.01 1.472-2.052 1.672-2.945.134-.6.006-1.523-.12-2.418-.1-.722-.207-1.469-.149-1.94.063-.511.203-1.149.392-1.843.612.509 3.062 2.996.853 8.685a3 3 0 0 1-.479.311c-.687.336-.958.86-1.217 1.368-.29.56-.588 1.141-1.481 1.574-.598.29-.904-.069-1-.219" fill="#ac5f38"/>
  <path d="M100.002.867C66.384.92 39.082 28.536 39.134 62.56a62.5 62.5 0 0 0 2.002 15.634h.001c.012.054 8.341 20.48 10.463 33.205 2.38 14.276 10.462 30.232 16.302 35.786 6.052 5.756 20.281 14.682 32.099 14.682 11.267 0 26.046-8.926 32.099-14.682 5.84-5.554 13.922-21.51 16.302-35.786 2.122-12.725 10.452-33.151 10.463-33.205h.002a62.4 62.4 0 0 0 2.002-15.634C160.923 28.536 133.62.92 100.002.867" fill="#daa488"/>
  <path d="M136.901 13.53c12.866 11.318 21.063 28.416 21.036 47.539a65.5 65.5 0 0 1-1.906 15.634h-.001c-.011.054-7.939 20.48-9.959 33.205-2.267 14.277-9.959 30.233-15.517 35.786-5.761 5.757-19.828 14.683-30.552 14.683-11.249 0-24.792-8.926-30.552-14.683-5.558-5.553-13.25-21.509-15.516-35.786-2.02-12.724-9.948-33.15-9.959-33.205h-.001a65.4 65.4 0 0 1-1.906-15.634c-.028-19.122 8.168-36.218 21.033-47.537C48.519 24.809 39.104 42.574 39.134 62.56a62.5 62.5 0 0 0 2.002 15.634h.001c.012.054 8.341 20.48 10.463 33.205 2.38 14.276 10.462 30.232 16.302 35.786 6.052 5.756 20.281 14.682 32.099 14.682 11.267 0 26.046-8.926 32.099-14.682 5.84-5.554 13.922-21.51 16.302-35.786 2.122-12.725 10.452-33.151 10.463-33.205h.002a62.4 62.4 0 0 0 2.002-15.634c.032-19.987-9.384-37.754-23.968-49.03" fill="#d29779"/>
  <path d="M100.002.867C66.384.92 39.082 28.536 39.134 62.56a62.5 62.5 0 0 0 2.002 15.634h.001c.012.054 8.341 20.48 10.463 33.205 2.38 14.276 10.462 30.232 16.302 35.786 6.052 5.756 20.281 14.682 32.099 14.682 11.267 0 26.046-8.926 32.099-14.682 5.84-5.554 13.922-21.51 16.302-35.786 2.122-12.725 10.452-33.151 10.463-33.205h.002a62.4 62.4 0 0 0 2.002-15.634C160.923 28.536 133.62.92 100.002.867z" fill="none" stroke="#ac5f38" stroke-width="1.5"/>
  <path d="M100.2 142.947c-2.832.144-3.644-2.753-3.644-2.753s3.931.565 6.991-.353c.001.001-.855 2.981-3.347 3.106" fill="url(#b)" transform="translate(-25.125 -34.157)scale(1.25)"/>
  <path d="M100.485 141.793a35 35 0 0 1-4.846-.111.313.313 0 0 1-.28-.34.325.325 0 0 1 .342-.28c.052.003 5.12.506 8.423-.422.164-.04.339.052.386.218s-.05.338-.216.385c-1.168.328-2.523.485-3.809.55" fill="#ac5f38"/>
  <path d="M78 128.717s15.665 1.857 20.898 1.873c5.69.015 24.102-1.873 24.102-1.873-5.322 4.417-11.179 8.665-24.444 8.748-11.865.077-14.905-4.232-20.556-8.748" fill="#fff"/>
  <path d="M78 128.717s15.665 1.857 20.898 1.873c5.69.015 24.102-1.873 24.102-1.873-5.322 4.417-11.179 8.665-24.444 8.748-11.865.077-14.905-4.232-20.556-8.748z" fill="none" stroke="#ac5f38" stroke-width=".938"/>
  <path d="M83.071 89.125c-3.293-.784-4.969 1.059-9.809 1.166-8.057.177-9.938-.618-11.199-2.638a15.3 15.3 0 0 1-1.264-2.601l-.1-4.149c1.328-3.949 19.541-4.352 25.9 1.784.287.666.433 1.287.465 1.867-.19.958-.512 1.878-.947 2.749-.706.81-1.762 1.426-3.046 1.822" fill="url(#c)"/>
  <path d="M80.25 84.25a6 6 0 0 1-12 0 6 6 0 0 1 12 0" fill="#4d3623"/>
  <path d="M76.604 84.25a2.354 2.354 0 1 1-4.707 0 2.354 2.354 0 1 1 4.707 0" fill="#4d3623"/>
  <path d="M76.604 84.25a2.354 2.354 0 1 1-4.707 0 2.354 2.354 0 1 1 4.707 0" opacity=".9"/>
  <path d="M70.717 86.748a.981.981 0 1 1 1.091 1.63.981.981 0 0 1-1.091-1.63" fill="url(#d)" opacity=".5" transform="translate(.25 .25)"/>
  <path d="M75.86 83.672c-.251.374-.969.331-1.606-.096s-.95-1.078-.7-1.451v-.001c.25-.374.969-.331 1.605.097.639.426.951 1.076.701 1.451" fill="url(#e)" opacity=".5" transform="translate(.25 .25)"/>
  <path d="M78.716 82.673c-.568.873-2.036.925-3.275.117-1.24-.808-1.784-2.17-1.215-3.043.568-.872 2.036-.924 3.275-.117 1.239.809 1.783 2.172 1.215 3.043" fill="url(#f)" opacity=".75" transform="translate(.25 .25)"/>
  <path d="M53.729 84.098c-.382 3.304 9.854 22.004 20.071 22.004s19.5-5.292 19.5-22.003c0-17.789-9.283-22.001-19.5-22.001s-18.174 5.606-20.071 22m7.071.955-.1-4.149c1.328-3.949 19.541-4.352 25.9 1.784 1.396 3.231-.409 5.477-3.529 6.438-3.293-.784-4.969 1.059-9.809 1.166-8.057.177-9.938-.618-11.199-2.638a15 15 0 0 1-1.263-2.601" fill="#daa488"/>
  <path d="M59.698 82.412c.023 7.534 7.646 13.604 17.038 13.566 9.389-.043 16.985-6.179 16.961-13.713-.023-7.533-7.647-13.605-17.04-13.566-9.392.044-16.984 6.179-16.959 13.713m1.102 2.641-.1-4.149c1.328-3.949 19.541-4.352 25.9 1.784 1.396 3.231-.409 5.477-3.529 6.438-3.293-.784-4.969 1.059-9.809 1.166-8.057.177-9.938-.618-11.199-2.638a15 15 0 0 1-1.263-2.601" fill="url(#g)"/>
  <path d="M62.063 87.654a15.3 15.3 0 0 1-1.264-2.601l-.1-4.149c1.328-3.949 19.541-4.352 25.9 1.784 1.396 3.231-.409 5.477-3.529 6.438-3.293-.784-4.969 1.059-9.809 1.166-8.055.177-9.937-.619-11.198-2.638" fill="url(#h)"/>
  <path d="M89.465 81.193c-9.617-5.761-16.701-6.128-28.117-5.394 9.529-1.501 20.504-.412 28.117 5.394" fill="#ac5f38"/>
  <path d="M88.23 85.283c-3.24-8.315-25.943-8.364-27.431-4.181v3.895c-1.021-1.539-1.047-1.633-1.483-3.404l-2.195.746s2.746-3.873 5.299-4.381c22.186-4.419 25.62 5.991 25.81 7.325m-3.487 4.137c-4.625-1.98-5.94.378-11.563.495-8.004.168-9.567-.766-11.125-2.476.813 2.091 1.375 3.085 10.875 3.027 5.376-.033 8.313-2.254 11.813-1.046"/>
  <path d="M116.529 89.125c3.293-.784 4.969 1.059 9.809 1.166 8.057.177 9.938-.618 11.199-2.638a15.3 15.3 0 0 0 1.264-2.601l.1-4.149c-1.328-3.949-19.541-4.352-25.9 1.784-.287.666-.433 1.287-.465 1.867.19.958.512 1.878.947 2.749.706.81 1.762 1.426 3.046 1.822" fill="url(#i)"/>
  <path d="M131.75 84.25a6 6 0 0 1-12 0 6.001 6.001 0 0 1 12 0" fill="#4d3623"/>
  <path d="M128.104 84.25a2.353 2.353 0 1 1-4.706 0 2.353 2.353 0 0 1 4.706 0" fill="#4d3623"/>
  <path d="M128.104 84.25a2.353 2.353 0 1 1-4.706 0 2.353 2.353 0 0 1 4.706 0" opacity=".9"/>
  <path d="M122.718 86.748a.98.98 0 1 1 1.09 1.628.98.98 0 0 1-1.09-1.628" fill="url(#j)" opacity=".5" transform="translate(-.25 .25)"/>
  <path d="M127.859 83.672c-.251.374-.969.331-1.605-.096-.638-.427-.95-1.078-.7-1.451l.001-.001c.25-.374.969-.331 1.605.097.638.426.95 1.076.699 1.451" fill="url(#k)" opacity=".5" transform="translate(-.25 .25)"/>
  <path d="M130.717 82.673c-.569.873-2.036.925-3.276.117s-1.784-2.17-1.215-3.043c.568-.872 2.035-.924 3.275-.117 1.239.809 1.783 2.172 1.216 3.043" fill="url(#l)" opacity=".75" transform="translate(-.25 .25)"/>
  <path d="M125.801 62.098c-10.217 0-19.5 4.212-19.5 22.001 0 16.711 9.283 22.003 19.5 22.003s19.891-18.032 20.07-22.004c.746-16.487-9.853-22-20.07-22m11.736 25.556c-1.261 2.02-3.143 2.815-11.199 2.638-4.84-.107-6.516-1.95-9.809-1.166-3.12-.961-4.925-3.207-3.529-6.438 6.359-6.136 24.572-5.733 25.9-1.784l-.1 4.149a15 15 0 0 1-1.263 2.601" fill="#daa488"/>
  <path d="M122.943 68.699c-9.393-.04-17.016 6.033-17.039 13.566-.025 7.535 7.572 13.67 16.961 13.713 9.391.037 17.014-6.033 17.037-13.566.026-7.534-7.566-13.669-16.959-13.713m14.594 18.955c-1.261 2.02-3.143 2.815-11.199 2.638-4.84-.107-6.516-1.95-9.809-1.166-3.12-.961-4.925-3.207-3.529-6.438 6.359-6.136 24.572-5.733 25.9-1.784l-.1 4.149a15 15 0 0 1-1.263 2.601" fill="url(#m)"/>
  <path d="M137.537 87.654a15.3 15.3 0 0 0 1.264-2.601l.1-4.149c-1.328-3.949-19.541-4.352-25.9 1.784-1.396 3.231.409 5.477 3.529 6.438 3.293-.784 4.969 1.059 9.809 1.166 8.056.177 9.937-.619 11.198-2.638" fill="url(#n)"/>
  <path d="M110.136 81.193c9.617-5.761 16.701-6.128 28.117-5.394-9.529-1.501-20.504-.412-28.117 5.394" fill="#ac5f38"/>
  <path d="M137.181 77.957c2.553.508 5.299 4.381 5.299 4.381l-2.195-.746c-.437 1.771-.463 1.865-1.483 3.404v-3.895c-1.487-4.183-24.19-4.134-27.431 4.181.19-1.333 3.623-11.743 25.81-7.325m-10.511 12.51c9.5.058 10.063-.937 10.875-3.027-1.558 1.71-3.121 2.644-11.125 2.476-5.622-.117-6.938-2.476-11.563-.495 3.5-1.209 6.438 1.012 11.813 1.046"/>
  <path d="M141 113.974c.035 22.622-18.292 40.994-40.938 41.025-22.642.037-41.028-18.273-41.063-40.9-.035-22.62 18.292-41.064 40.937-41.1 22.643-.035 41.031 18.35 41.064 40.975" fill="url(#o)"/>
  <path d="M137.5 53.999c0 20.711-16.789 37.5-37.499 37.5S62.5 74.71 62.5 53.999s16.79-37.5 37.501-37.5 37.499 16.789 37.499 37.5" fill="url(#p)"/>
  <path d="M53.149 74.996c9.743-15.115 36.491 5.148 38.018-1.191.299-1.271-.407-2.015-1.564-2.492-13.621-5.506-31.648-10.133-36.454 3.683m93.702 0c-9.743-15.115-36.491 5.148-38.018-1.191-.299-1.271.407-2.015 1.564-2.492 13.621-5.506 31.648-10.133 36.454 3.683" fill="#2a232b"/>
  <g stroke-width="none">
    <path d="M96.831 88.524s-1.399 11.117-2.026 13.281c-1.379 4.752-6.168 11.417-5.239 14.429 1.859 6.022 7.537 4.493 10.524 4.471 2.763-.022 8.072 1.552 9.162-2.37.352-1.266-.441-4.466-.441-4.466s-2.644 3.112-8.875 2.767c-1.778-.099-4.671-2.096-4.704-4.912-.043-3.817 1.802-7.035 2.205-10.824.304-2.878-.606-12.376-.606-12.376" fill="#cb8b6a"/>
    <path d="M105.194 118.969c1.075 0 1.366.326 1.366.729 0 .404-.335 1.026-1.366.73-1.134-.323-3.113-.175-3.113-.175s2.036-1.284 3.113-1.284m-10.272 0c-1.077.001-1.366.328-1.366.733-.001.403.323.983 1.366.729 1.15-.282 3.112-.175 3.112-.175s-2.035-1.283-3.112-1.287m13.888-5.1s1.489 1.933 1.18 3.975c-.301 1.983-3.31 2.861-3.31 2.861s2.089-1.516 2.342-3.356c.118-.863-.212-3.48-.212-3.48m-18.383-1.986s-1.086 2.704-.772 4.352c.571 2.976 3.704 4.164 3.704 4.164s-1.955-2.039-2.65-3.842c-.761-1.97-.282-4.674-.282-4.674" fill="#ac5f38"/>
    <path d="M105.141 115.311c1.043-.889 1.148-1.396.932-1.729s-.841-.545-1.714.528c-.963 1.18-3.056 2.054-3.056 2.054s2.795.034 3.838-.853" fill="#e9bfa9"/>
  </g>
  <path d="M71.7 128.57c.26 1.18.08 1.62-.33 2.5.31-1.35.32-1.37.33-2.5m26.89 29.08c-.02-1.21-.44-1.85-1.56-2.22.9.61 1.33 1.16 1.56 2.22m-3.79-1.09c-.05-1.04-.28-1.67-1.1-2.33.56.79.8 1.33 1.1 2.33m-3.93-1.32c.08.46.74 1.31 1.33 1.5-.49-.28-1.33-1.5-1.33-1.5m-3.67-1.67c.08.24.68 1.88.83 1.67.01 0-.95-2.02-.83-1.67m2.5-2.83c-.25 1-.3 1.59-.17 2.67.1-.62.18-2.18.17-2.67m2.17-2.84c-.09.77-.1 1.57 0 2.33.09-.66.11-1.43 0-2.33m1.17 4.84c.66-.85.89-1.29 1.17-2.33-.21.33-1.02 1.97-1.17 2.33m3.66-2.34c-.08 1.28.04 1.85.5 2.83-.36-1.69-.24-1.1-.5-2.83m-1.5-1.5c.42-.82.57-1.29.67-2.17-.18.44-.57 1.76-.67 2.17m3.84-1.5c-.07.62.05 1.77.67 1.67-.47.08-.61-1.21-.67-1.67m-3.84-2.5c.32-.74.56-1.58.67-2.33-.33.75-.55 1.56-.67 2.33m-7 1.84c-.29.88-.39 1.45-.33 2.5.1-.46.3-2.01.33-2.5m-2.83 6.33c.51-1 .7-1.62.83-2.67-.23.56-.68 2-.83 2.67m-2.33-2.5c-.54.6.17 1.67.17 1.67-.02-.72-.4-1.07-.17-1.67m1-5.77c0-.06-.12.23.16 2.6.06-2.55-.17-2.93-.17-2.5.01 0 .01-.04.01-.1m-3.84 2.1c.08 1.47.03 2.06.33 3-.1-2.13-.06-2-.33-3m-2.5.17c-.18.83-.21 1.34.33 2-.36-.74-.33-1.15-.33-2m-4.16-2.17c.02-.51-.01-1.11-.15-1.68 0-.09-.07.67.15 1.68m1.72.59.61-2.92c-.42.71-.61 2.92-.61 2.92m3.44-3.59c-.55.52-.86 1.66-.83 2.33.11-.44.54-1.89.83-2.33m2.67 2.84c.25-1.07.3-1.7.17-2.83-.11.67-.18 2.28-.17 2.83m-.17-8.5c-.2.65-.24.95-.17 1.67.02-.08.17-1.61.17-1.67m-2.66 2.66c.46-.63 0-2.33 0-2.33s.13 2.03 0 2.33m-3.67-1.16c.17.83.46 1.74.83 2.5-.16-.83-.45-1.71-.83-2.5m-3.33 0c-.3 1.81-.06 2.33.33 3.33-.24-1.48-.31-1.67-.33-3.33m-2.5-2c-.4.64-.54 2.16.17 3-.41-.77-.37-2.41-.17-3m.83-5.17s-.5.94-.5 2.33c.18-.79.38-1.7.5-2.33m3.17 2.5s-.83.06-.5 2.5c.37-3.06.5-2.5.5-2.5m4.16 1c.27-.84.45-1.75.5-2.67-.28.86-.44 1.77-.5 2.67m-2-6.17c-.46 1.05-.54 1.45-.5 2.5zm4-1.66c-.67.58-.88 2.11-.83 3 .46-2.72.83-3 .83-3m4.5.16c-.8.64-1.12 1.1-1.33 2.33.39-.95.48-1.29 1.33-2.33m2.84 2.67c.64-.63 1.5-3.33 1.5-3.33-.18-.35-1.29 2.98-1.5 3.33m5-3.33c-.56.13-1.43 2.64-1.67 3.17.3-.43 1.67-3.17 1.67-3.17m3.16-.17c-.48.99-.74 1.51-1 2.67.48-.95.71-1.73 1-2.67m4-.5c-.76 1.71-.43 1.22-1.33 3 .57-.71 1-1.33 1.33-3m29.6 3.5c-.26 1.18-.08 1.62.33 2.5-.31-1.35-.32-1.37-.33-2.5m-24.84 26.67c-1.12.37-1.49.68-1.5 1.89.23-1.07.6-1.29 1.5-1.89m2.86-.53c-.82.66-1.14 1.49-1.19 2.53.3-1 .64-1.75 1.19-2.53m1.48 2.03c.59-.19 1.26-1.04 1.33-1.5 0 0-.84 1.22-1.33 1.5m4.16-1.5c.15.21.75-1.42.83-1.67.13-.35-.83 1.67-.83 1.67m-1.5-1.84c.13-1.08.08-1.67-.17-2.67 0 .5.08 2.06.17 2.67m-2.33-3.16c.1-.77.09-1.57 0-2.33a9 9 0 0 0 0 2.33m-2.33.16c.28 1.04.51 1.49 1.17 2.33-.16-.35-.97-1.99-1.17-2.33m-3 2.84c.46-.99.58-1.55.5-2.83-.26 1.72-.14 1.13-.5 2.83m1.33-6.5c.1.88.24 1.35.67 2.17-.1-.42-.49-1.74-.67-2.17m-2.83 1.33c.61.1.74-1.05.67-1.67-.07.46-.21 1.75-.67 1.67m2.83-5.5c.11.75.35 1.59.67 2.33-.12-.77-.34-1.58-.67-2.33m8 6.67c.06-1.05-.04-1.62-.33-2.5.03.49.23 2.04.33 2.5m1.67 1.16c.13 1.04.33 1.67.83 2.67-.15-.67-.6-2.11-.83-2.67m3 1.84s.71-1.06.17-1.67c.22.6-.16.95-.17 1.67m-.84-7.34c0-.43-.22-.05-.17 2.5.28-2.37.16-2.66.16-2.6.01.06.01.1.01.1m3.5 5c.3-.94.25-1.53.33-3-.26 1-.22.87-.33 3m2.5-.83c.54-.66.51-1.17.33-2 .01.85.04 1.26-.33 2m4.65-5.84c-.14.57-.17 1.17-.15 1.68.22-1.02.15-1.78.15-1.68m-2.48-.66.61 2.92s-.19-2.21-.61-2.92m-2 1.67c.03-.67-.29-1.81-.83-2.33.29.43.72 1.88.83 2.33m-3.67-2.34c-.14 1.13-.09 1.76.17 2.83.01-.54-.06-2.15-.17-2.83m.5-4c.07-.72.03-1.02-.17-1.67.01.07.16 1.6.17 1.67m2.5-1.33s-.46 1.7 0 2.33c-.13-.3 0-2.33 0-2.33m2.84 3.67c.37-.76.67-1.67.83-2.5-.38.79-.67 1.67-.83 2.5m3.83.83c.4-1 .64-1.53.33-3.33-.02 1.66-.09 1.85-.33 3.33m2.67-2.33c.71-.84.57-2.36.17-3 .19.59.23 2.23-.17 3m-.17-5.84c0-1.4-.5-2.33-.5-2.33.12.63.32 1.54.5 2.33m-3.17 2.67c.33-2.44-.5-2.5-.5-2.5s.13-.56.5 2.5m-5.16-4.17c.05.91.23 1.83.5 2.67-.06-.9-.22-1.81-.5-2.67m3-1c.04-1.05-.04-1.45-.5-2.5zm-3.67-1.16c.05-.89-.17-2.42-.83-3 0 0 .37.28.83 3m-4-.5c-.21-1.24-.53-1.7-1.33-2.33.85 1.03.94 1.37 1.33 2.33m-5.67-3s.86 2.7 1.5 3.33c-.21-.35-1.32-3.68-1.5-3.33m-1.83 3.16c-.24-.53-1.1-3.04-1.67-3.17 0 .01 1.37 2.75 1.67 3.17m-3.83-.66c-.26-1.15-.52-1.68-1-2.67.29.94.52 1.72 1 2.67m-3.67-.17c-.91-1.78-.57-1.29-1.33-3 .33 1.67.75 2.29 1.33 3m-2.12 23.59c-1.02 1.58-.98 2.27-.95 3.27.29-1.43.27-1.42.95-3.27m-2.58-8.71c.51 1.42.57 1.57.82 2.59-.03-1.09-.25-1.67-.82-2.59m2.86 2.13c.25-1.02.78-.71 1.29-2.13-.58.92-1.27 1.05-1.29 2.13" fill="#080806"/>
  <g stroke-width="none">
    <path d="M158.43 41.325C140-4.765 100 .405 100 .405s-40-5.169-58.43 40.92c-9.245 23.12 2.158 50.324 2.158 50.324h5.826c-5.094-21.752.796-17.662 1.176-21.722.118-1.255-.3-3.367-.421-4.622-.592-6.112 1.982-18.029 5.245-23.173 1.603-2.526 5.369-6.659 8.174-7.699 9.97-3.694 20.044.715 22.854 1.421 4.461 1.12 22.373 1.12 26.836 0 3.343-.839 13.182-4.905 22.854-1.321 2.806 1.04 6.871 4.972 8.474 7.499 3.263 5.144 5.537 16.16 4.945 22.272-.121 1.255-.539 4.367-.422 5.623.107 1.147 2.617 3.689 2.898 4.807 1.16 4.612-1.722 16.915-1.722 16.915h5.825c.001 0 11.406-27.204 2.16-50.324" fill="#2a232b"/>
    <path d="M154.938 31.163C136.178-3.114 101.979-.631 100-.455c-1.979-.176-36.177-2.659-54.938 31.618-14.492 26.478-3.492 56.974-2.155 60.449.076.197 1.576.038 1.576.038-.006-.015-.104-.392-.166-.55-1.209-3.12-12.189-33.18 2.061-59.216C65.111-2.342 99.595 1.007 99.94 1.046l.06-.542.06.542c.345-.039 34.829-3.388 53.563 30.837 14.563 26.61 2.773 57.423 1.996 59.383-.021.055-.107.375-.111.383 0 0 1.506.169 1.575-.011 1.291-3.344 12.384-33.929-2.145-60.475"/>
  </g>
  <g stroke-width="none">
    <path d="M148.74 83.98c-.07 5.17-2.36 10.62-5.3 14.98-2.86 4.24-10.31 5.75-15.82 5.75-4.5 0-8.51-.92-11.02-2.53-4.73-3.04-9.81-10.61-10.93-17.83 10.17-6.11 31.14-6.11 43.07-.37m-97.48-.7c-.14 5.38 2.23 11.13 5.3 15.68 2.86 4.24 10.31 5.75 15.82 5.75 4.5 0 8.51-.92 11.02-2.53 4.59-2.95 9.5-10.16 10.81-17.18-10.81-6.34-31.61-7.03-42.95-1.72" fill="#fff" opacity=".2"/>
    <path d="M148.74 83.98c-11.93-5.73-32.9-5.74-43.06.36-.17-1.1-.25-2.19-.23-3.26.22-8.25 12.02-11.18 22.06-11.18 7.08 0 15.44 1.47 18.14 4.74 2.26 2.75 3.14 5.98 3.09 9.34M72.49 69.9c-7.08 0-15.44 1.47-18.14 4.74-2.1 2.55-3.01 5.53-3.09 8.64 11.35-5.31 32.14-4.62 42.94 1.71.25-1.32.38-2.63.34-3.91-.22-8.25-12.02-11.18-22.05-11.18" fill="#fff" opacity=".4"/>
    <path d="M154.48 72.86c-.6-2.41-28.01-7.28-42.24-2.39-3.44 1.18-5.82 2.23-7.24 3.72v-.02c-.5.88-1.75 1.18-2.64.85-1.6-.61-3.22-.58-4.72 0-.88.34-2.14.03-2.64-.85v.02c-1.42-1.49-3.79-2.53-7.24-3.72-14.23-4.89-41.64-.01-42.24 2.39-.23.95-.54 6.06-.52 7.89s1.16 1.69 2.87 2.49c.66.31 2.04 2.67 2.17 3.64.63 4.54 2.44 8.75 5.26 12.93 4.82 7.14 21.71 8.27 28.91 3.64 4.98-3.2 10.14-10.73 11.51-18.22.27-1.49.52-2.65.71-3.65l.01.05c.36-1.23 1.97-1.83 3.57-1.86 1.6.03 3.21.63 3.57 1.86l.01-.05c.18 1 .44 2.16.71 3.65 1.37 7.49 6.53 15.02 11.51 18.22 7.2 4.63 24.09 3.5 28.91-3.64 2.82-4.18 4.63-8.39 5.26-12.93.13-.98 1.51-3.34 2.17-3.64 1.71-.8 2.86-.65 2.87-2.49 0-1.83-.31-6.95-.54-7.89m-71.36 28.89c-6.38 4.1-22.02 3.04-26.15-3.07-4.7-6.98-7.82-16.94-2.24-23.72 5.38-6.53 38.94-7.32 39.31 6.13.22 7.9-5.58 17.23-10.92 20.66m59.91-3.07c-4.13 6.12-19.77 7.17-26.15 3.07-5.34-3.43-11.14-12.76-10.92-20.66.37-13.45 33.93-12.66 39.31-6.13 5.58 6.77 2.46 16.74-2.24 23.72" fill="#2c2c2c"/>
    <path d="M45.37 73.94c.05-.5.1-.89.15-1.09.6-2.41 28.01-7.28 42.24-2.39 3.44 1.18 5.82 2.23 7.24 3.72v-.02c0-.01-22-11.62-49.63-.22m108.55 8.56c.67-.3 1.07-.7 1.08-1.77.02-1.82-.29-6.94-.52-7.89-.6-2.41-28.01-7.28-42.24-2.39-3.28 1.13-5.59 2.14-7.03 3.52 7.52-5.95 38.17-7.14 46.39 1.02 1.7 1.7 2.24 4.92 2.32 7.51" fill="#3b3b3b"/>
  </g>
</svg>
